Coordinates
version=1
nRows=18
nColumns=63
inDegrees=yes

Units are S.I. units (second, meters, Newtons, ...)
If the header above contains a line with 'inDegrees', this indicates whether rotational values are in degrees (yes) or radians (no).

endheader
time	pelvis_tilt	pelvis_list	pelvis_rotation	pelvis_tx	pelvis_ty	pelvis_tz	hip_flexion_r	hip_adduction_r	hip_rotation_r	knee_angle_r	knee_angle_r_beta	ankle_angle_r	subtalar_angle_r	mtp_angle_r	hip_flexion_l	hip_adduction_l	hip_rotation_l	knee_angle_l	knee_angle_l_beta	ankle_angle_l	subtalar_angle_l	mtp_angle_l	L5_S1_Flex_Ext	L5_S1_Lat_Bending	L5_S1_axial_rotation	L4_L5_Flex_Ext	L4_L5_Lat_Bending	L4_L5_axial_rotation	L3_L4_Flex_Ext	L3_L4_Lat_Bending	L3_L4_axial_rotation	L2_L3_Flex_Ext	L2_L3_Lat_Bending	L2_L3_axial_rotation	L1_L2_Flex_Ext	L1_L2_Lat_Bending	L1_L2_axial_rotation	L1_T12_Flex_Ext	L1_T12_Lat_Bending	L1_T12_axial_rotation	Abs_r3	Abs_r2	Abs_r1	Abs_t1	Abs_t2	neck_flexion	neck_bending	neck_rotation	arm_flex_r	arm_add_r	arm_rot_r	elbow_flex_r	pro_sup_r	wrist_flex_r	wrist_dev_r	arm_flex_l	arm_add_l	arm_rot_l	elbow_flex_l	pro_sup_l	wrist_flex_l	wrist_dev_l
0.000000	5.539632	-2.690362	97.350147	0.125421	0.816617	0.839771	14.153071	2.186183	-3.192626	20.061942	0.350147	32.665798	5.074088	0.000000	10.308686	-1.028167	3.793545	11.140470	0.194438	32.353686	1.103443	0.000000	0.290652	0.492991	0.325954	0.539770	0.655678	0.346326	0.477512	1.198659	0.346326	0.332186	1.198659	0.285209	0.269899	1.005307	0.264837	0.166079	0.763643	0.244465	2.076098	5.576814	1.812856	0.000000	0.000000	26.089523	1.095765	8.363637	15.444560	-17.675914	48.028238	68.342815	62.218465	-0.165317	10.352077	19.228405	-14.342471	50.777887	67.940419	84.260319	-22.998621	31.686716
0.016667	5.501690	-2.694137	97.809140	0.124471	0.816500	0.839439	14.250776	2.190589	-2.555346	20.106803	0.350930	32.835796	3.520258	0.000000	10.240425	-0.873075	4.571383	10.860138	0.189545	32.534861	1.287415	0.000000	0.301656	0.477889	0.404581	0.560206	0.635592	0.429867	0.495591	1.161939	0.429867	0.344763	1.161939	0.354008	0.280118	0.974511	0.328722	0.172366	0.740250	0.303436	2.154700	5.405976	2.250159	0.000000	0.000000	26.241007	0.982638	7.280234	14.073165	-18.310596	46.807781	68.236164	59.086906	1.108370	15.854267	20.462806	-14.415732	53.637802	67.294150	85.902235	-15.926852	31.712176
0.033333	5.505161	-2.695810	98.201681	0.123564	0.816371	0.839170	14.275374	2.231469	-1.993715	20.030231	0.349593	32.936187	2.197414	0.000000	10.187818	-0.777277	5.157268	10.647389	0.185832	32.708244	1.519248	0.000000	0.311257	0.471368	0.448142	0.578035	0.626919	0.476151	0.511364	1.146083	0.476151	0.355736	1.146083	0.392124	0.289033	0.961213	0.364116	0.177852	0.730148	0.336107	2.223278	5.332205	2.492433	0.000000	0.000000	26.355443	0.896176	6.484316	13.095975	-18.896062	45.999630	68.093165	57.653870	2.850768	20.457774	21.453592	-14.529804	56.089275	66.827487	87.186403	-10.414751	31.452333
0.050000	5.546535	-2.695599	98.532262	0.122701	0.816232	0.838961	14.234944	2.305792	-1.501256	19.844722	0.346356	32.973776	1.087528	0.000000	10.149888	-0.736297	5.565937	10.496351	0.183196	32.874546	1.795588	0.000000	0.319506	0.472617	0.460990	0.593354	0.628580	0.489802	0.524916	1.149120	0.489802	0.365163	1.149120	0.403366	0.296693	0.963760	0.374555	0.182566	0.732083	0.345743	2.282199	5.346334	2.563890	0.000000	0.000000	26.436290	0.833276	5.946627	12.470597	-19.434395	45.556755	67.920498	57.706175	4.980011	24.233156	22.222314	-14.674755	58.162644	66.516271	88.141331	-6.304810	30.946392
0.066667	5.622303	-2.693724	98.805374	0.121886	0.816087	0.838806	14.137566	2.410529	-1.071493	19.562769	0.341435	32.955366	0.172572	0.000000	10.125658	-0.745660	5.812123	10.401153	0.181534	33.034475	2.113082	0.000000	0.326455	0.480826	0.447479	0.606259	0.639499	0.475446	0.536332	1.169080	0.475446	0.373105	1.169080	0.391544	0.303146	0.980500	0.363576	0.186536	0.744799	0.335609	2.331832	5.439199	2.488742	0.000000	0.000000	26.487002	0.790838	5.637911	12.154642	-19.927675	45.432123	67.724841	59.030641	7.414234	27.250971	22.790520	-14.840654	59.888250	66.336342	88.795525	-3.439520	30.233556
0.083333	5.728956	-2.690403	99.025508	0.121120	0.815939	0.838702	13.991320	2.542650	-0.697949	19.196868	0.335049	32.887760	-0.565482	0.000000	10.114152	-0.800890	5.910561	10.355924	0.180745	33.188739	2.468378	0.000000	0.332154	0.495185	0.411960	0.616844	0.658596	0.437708	0.545696	1.203993	0.437708	0.379619	1.203993	0.360465	0.308439	1.009782	0.334718	0.189793	0.767042	0.308970	2.372545	5.601634	2.291200	0.000000	0.000000	26.511036	0.765761	5.528914	12.105717	-20.377984	45.578705	67.512876	61.414084	10.071571	29.581776	23.179762	-15.017569	61.296432	66.263541	89.177493	-1.661374	29.353029
0.100000	5.862986	-2.685854	99.197156	0.120406	0.815792	0.838645	13.804285	2.699125	-0.374149	18.759514	0.327415	32.777764	-1.144661	0.000000	10.114394	-0.897512	5.875987	10.354794	0.180725	33.338047	2.858122	0.000000	0.336657	0.514884	0.358789	0.625206	0.684796	0.381213	0.553094	1.251890	0.381213	0.384765	1.251890	0.313941	0.312620	1.049952	0.291516	0.192366	0.797556	0.269092	2.404707	5.824474	1.995478	0.000000	0.000000	26.511850	0.754943	5.590378	12.281433	-20.787405	45.949469	67.291281	64.643324	12.870156	31.296130	23.411590	-15.195570	62.417529	66.273708	89.315741	-0.812866	28.344017
0.116667	6.020883	-2.680296	99.324807	0.119745	0.815649	0.838630	13.584541	2.876924	-0.093615	18.263202	0.318753	32.632181	-1.582994	0.000000	10.125408	-1.031050	5.723136	10.391892	0.181373	33.483109	3.278963	0.000000	0.340014	0.539113	0.292318	0.631440	0.717020	0.310588	0.558609	1.310799	0.310588	0.388602	1.310799	0.255778	0.315737	1.099359	0.237508	0.194284	0.835086	0.219239	2.428685	6.098554	1.625786	0.000000	0.000000	26.492899	0.755283	5.793048	12.639398	-21.158019	46.497385	67.066735	68.505177	15.728125	32.464590	23.507554	-15.364723	63.281881	66.342685	89.238776	-0.736486	27.245722
0.133333	6.199138	-2.673948	99.412954	0.119139	0.815513	0.838653	13.340168	3.073017	0.150130	17.720426	0.309280	32.457814	-1.898508	0.000000	10.146216	-1.197029	5.466742	10.461345	0.182585	33.624633	3.727546	0.000000	0.342277	0.567061	0.216901	0.635642	0.754191	0.230457	0.562326	1.378752	0.230457	0.391188	1.378752	0.189788	0.317838	1.156351	0.176232	0.195577	0.878377	0.162675	2.444847	6.414707	1.206336	0.000000	0.000000	26.457640	0.763679	6.107670	13.137220	-21.491907	47.175422	66.845920	72.786463	18.563611	33.157713	23.489204	-15.515099	63.919827	66.446311	88.975106	-1.274728	26.097349
0.150000	6.394242	-2.667027	99.466087	0.118592	0.815387	0.838710	13.079244	3.284375	0.363560	17.143682	0.299214	32.261469	-2.109231	0.000000	10.175842	-1.390974	5.121540	10.557284	0.184259	33.763327	4.200521	0.000000	0.343497	0.597918	0.136890	0.637908	0.795231	0.145445	0.564331	1.453778	0.145445	0.392582	1.453778	0.119779	0.318971	1.219274	0.111223	0.196274	0.926175	0.102667	2.453563	6.763768	0.761340	0.000000	0.000000	26.409530	0.777031	6.504986	13.732509	-21.791151	47.936549	66.635514	77.273998	21.294749	33.446059	23.378091	-15.636765	64.361706	66.560429	88.553237	-2.270083	24.938102
0.166667	6.602687	-2.659754	99.488698	0.118104	0.815274	0.838796	12.809850	3.507967	0.553154	16.545465	0.288773	32.049948	-2.233191	0.000000	10.213311	-1.608410	4.702265	10.673838	0.186294	33.899902	4.694532	0.000000	0.343726	0.630874	0.056639	0.638333	0.839062	0.060179	0.564707	1.533907	0.060179	0.392844	1.533907	0.049559	0.319184	1.286478	0.046019	0.196405	0.977224	0.042479	2.455200	7.136573	0.315011	0.000000	0.000000	26.352025	0.792238	6.955742	14.382873	-22.057834	48.733734	66.442196	81.754602	23.839673	33.400184	23.195764	-15.719790	64.637859	66.660878	88.001677	-3.565045	23.807186
0.183333	6.828703	-2.663845	99.460323	0.117699	0.815163	0.838879	12.568921	3.760925	0.847487	15.939635	0.278199	31.849678	-2.414683	0.000000	10.262197	-1.855437	4.194748	10.792274	0.188361	34.051472	5.250228	0.000000	0.342252	0.666330	-0.030651	0.635595	0.886219	-0.032566	0.562285	1.620116	-0.032566	0.391159	1.620116	-0.026819	0.317815	1.358781	-0.024904	0.195563	1.032146	-0.022988	2.444669	7.537662	-0.170471	0.000000	0.000000	26.333220	0.872566	7.539301	15.094636	-22.306197	49.486963	66.259177	87.252577	26.034753	33.011453	22.903238	-15.690860	64.632717	66.670882	87.390998	-4.901086	22.573431
0.200000	7.055648	-2.672915	99.416136	0.117373	0.815070	0.838999	12.341629	4.011591	1.113651	15.344949	0.267820	31.634676	-2.533929	0.000000	10.323749	-2.107133	3.681455	10.920695	0.190602	34.186074	5.759520	0.000000	0.341225	0.701451	-0.081635	0.633690	0.932930	-0.086737	0.560599	1.705509	-0.086737	0.389987	1.705509	-0.071431	0.316862	1.430399	-0.066328	0.194976	1.086548	-0.061226	2.437339	7.934957	-0.454030	0.000000	0.000000	26.315653	0.878845	8.004248	15.606013	-22.514465	49.987296	66.128073	90.550465	27.983443	32.714551	22.689339	-15.611054	64.778895	66.613506	86.551816	-6.287406	21.782030
0.216667	7.279923	-2.676817	99.349695	0.117128	0.815021	0.839170	12.130794	4.253295	1.311312	14.784814	0.258044	31.427272	-2.534210	0.000000	10.382177	-2.365926	3.121816	11.044764	0.192767	34.307697	6.278950	0.000000	0.338792	0.735221	-0.100306	0.629170	0.977844	-0.106575	0.556601	1.787616	-0.106575	0.387205	1.787616	-0.087768	0.314602	1.499262	-0.081499	0.193586	1.138857	-0.075230	2.419956	8.316964	-0.557874	0.000000	0.000000	26.297878	0.816238	8.299370	15.968678	-22.709426	50.356219	66.084761	92.200395	29.329142	32.364395	22.520973	-15.455650	64.921445	66.433364	85.708192	-7.143003	21.235820
0.233333	7.504545	-2.666138	99.296172	0.116943	0.815020	0.839389	11.927473	4.490090	1.443062	14.255491	0.248805	31.234272	-2.462530	0.000000	10.441514	-2.632222	2.561054	11.177573	0.195085	34.430144	6.811140	0.000000	0.334507	0.767051	-0.098670	0.621213	1.020178	-0.104836	0.549562	1.865008	-0.104836	0.382308	1.865008	-0.086336	0.310623	1.564171	-0.080169	0.191137	1.188162	-0.074002	2.389350	8.677036	-0.548771	0.000000	0.000000	26.253997	0.744232	8.462442	16.190001	-22.893027	50.614783	66.130963	92.528686	29.983842	31.977452	22.413457	-15.221293	65.057763	66.138452	84.929849	-7.312468	20.995649
0.250000	7.722996	-2.643418	99.266580	0.116808	0.815064	0.839647	11.739608	4.711272	1.497820	13.767586	0.240290	31.068826	-2.314970	0.000000	10.501644	-2.896795	2.028610	11.311336	0.197420	34.557427	7.352137	0.000000	0.328601	0.795384	-0.087174	0.610245	1.057860	-0.092623	0.539858	1.933895	-0.092623	0.375558	1.933895	-0.076278	0.305139	1.621946	-0.070829	0.187763	1.232049	-0.065381	2.347163	8.997537	-0.484838	0.000000	0.000000	26.194573	0.685884	8.503881	16.297477	-23.062792	50.792691	66.245015	91.678041	29.937112	31.675407	22.353249	-14.928920	65.169980	65.772494	84.281805	-6.907194	21.115075
0.266667	7.941735	-2.625510	99.253832	0.116740	0.815134	0.839893	11.586592	4.935319	1.554265	13.321916	0.232511	30.913341	-2.198822	0.000000	10.576723	-3.165752	1.524646	11.440365	0.199672	34.702181	7.910665	0.000000	0.324632	0.820525	-0.069804	0.602873	1.091299	-0.074167	0.533337	1.995026	-0.074167	0.371021	1.995026	-0.061079	0.301453	1.673215	-0.056716	0.185494	1.270994	-0.052353	2.318810	9.281948	-0.388230	0.000000	0.000000	26.112170	0.658284	8.463394	16.266587	-23.210481	50.825534	66.426975	90.301751	29.286109	31.556147	22.277074	-14.578424	65.113628	65.339050	83.927173	-5.841630	21.525875
0.283333	8.144493	-2.593639	99.258505	0.116723	0.815265	0.840108	11.447621	5.148359	1.617623	12.927040	0.225619	30.779125	-2.117109	0.000000	10.639540	-3.424190	1.045596	11.558646	0.201736	34.865648	8.483685	0.000000	0.319753	0.841328	-0.050347	0.593813	1.118966	-0.053493	0.525322	2.045605	-0.053493	0.365445	2.045605	-0.044053	0.296922	1.715636	-0.040907	0.182707	1.303217	-0.037760	2.283961	9.517273	-0.280012	0.000000	0.000000	25.998255	0.648062	8.348896	16.129468	-23.316297	50.681288	66.603643	89.264827	28.558502	31.410904	22.214474	-14.219804	64.991038	64.853964	83.965069	-4.527148	21.980908
